<?xml version="1.0" encoding="utf-8"?>
<!-- Generator: Adobe Illustrator 18.1.1, SVG Export Plug-In . SVG Version: 6.00 Build 0)  -->
<!DOCTYPE svg PUBLIC "-//W3C//DTD SVG 1.1//EN" "http://www.w3.org/Graphics/SVG/1.1/DTD/svg11.dtd">
<svg version="1.1" xmlns="http://www.w3.org/2000/svg" xmlns:xlink="http://www.w3.org/1999/xlink" x="0px" y="0px" width="238px"
	 height="159px" viewBox="0 0 238 159" enable-background="new 0 0 238 159" xml:space="preserve">
<g id="Blue" display="none">
	<rect display="inline" fill="#0070B8" width="238" height="159"/>
</g>
<g id="Blue_copy" display="none">
	<rect display="inline" fill="#EDF5F8" width="238" height="159"/>
</g>
<g id="Gray">
	<rect fill="#F2F2F2" width="238" height="159"/>
</g>
<g id="Layer_1">
	<path fill="#A6CFE5" d="M129.1,38.7c-0.3-0.9-0.6-1.7-1.1-2.5c-0.5-0.8-1-1.5-1.6-2.1c-0.6-0.6-1.3-1.2-2.1-1.6
		c-0.8-0.5-1.6-0.8-2.5-1.1c-0.9-0.2-1.8-0.4-2.8-0.4s-1.9,0.1-2.8,0.4c-0.9,0.3-1.7,0.6-2.5,1.1c-0.8,0.5-1.5,1-2.1,1.6
		c-0.6,0.6-1.2,1.3-1.6,2.1c-0.5,0.8-0.8,1.6-1.1,2.5c-0.3,0.9-0.4,1.8-0.4,2.8c0,1,0.1,1.9,0.4,2.8c0.3,0.9,0.6,1.7,1.1,2.5
		c0.5,0.8,1,1.5,1.6,2.1c0.6,0.6,1.3,1.2,2.1,1.7c0.8,0.5,1.6,0.8,2.5,1c0.9,0.2,1.8,0.4,2.8,0.4s1.9-0.1,2.8-0.4
		c0.9-0.2,1.7-0.6,2.5-1c0.8-0.5,1.5-1,2.1-1.7c0.6-0.6,1.2-1.4,1.6-2.1c0.5-0.8,0.8-1.6,1.1-2.5c0.3-0.9,0.4-1.8,0.4-2.8
		C129.5,40.5,129.4,39.6,129.1,38.7z M120.8,37.8c0.1-0.2,0.2-0.3,0.3-0.5c0.1-0.1,0.3-0.2,0.5-0.3c0.2-0.1,0.4-0.1,0.6-0.1
		c0.2,0,0.4,0,0.6,0.1c0.2,0.1,0.3,0.2,0.5,0.3c0.1,0.1,0.3,0.3,0.3,0.5c0.1,0.2,0.1,0.4,0.1,0.6c0,0.2,0,0.4-0.1,0.6
		c-0.1,0.2-0.2,0.3-0.3,0.5c-0.1,0.1-0.3,0.3-0.5,0.3c-0.2,0.1-0.4,0.1-0.6,0.1c-0.2,0-0.4,0-0.6-0.1s-0.3-0.2-0.5-0.3
		c-0.1-0.1-0.2-0.3-0.3-0.5c-0.1-0.2-0.1-0.4-0.1-0.6C120.7,38.2,120.7,38,120.8,37.8z M114.4,37.8c0.1-0.2,0.2-0.3,0.3-0.5
		c0.1-0.1,0.3-0.2,0.5-0.3c0.2-0.1,0.4-0.1,0.6-0.1c0.2,0,0.4,0,0.6,0.1c0.2,0.1,0.3,0.2,0.5,0.3c0.1,0.1,0.2,0.3,0.3,0.5
		c0.1,0.2,0.1,0.4,0.1,0.6c0,0.2,0,0.4-0.1,0.6c-0.1,0.2-0.2,0.3-0.3,0.5c-0.1,0.1-0.3,0.3-0.5,0.3c-0.2,0.1-0.4,0.1-0.6,0.1
		c-0.2,0-0.4,0-0.6-0.1c-0.2-0.1-0.3-0.2-0.5-0.3c-0.1-0.1-0.2-0.3-0.3-0.5c-0.1-0.2-0.1-0.4-0.1-0.6
		C114.3,38.2,114.3,38,114.4,37.8z M124,45h-10v-1h10V45z"/>
	<path fill="#89C33F" d="M60.7,115h12.2c0-15.3,7.7-29.1,19.6-37.6l-8.8-8.8C69.7,79.4,60.7,96.2,60.7,115z"/>
	<path fill="#EC4F24" d="M154.3,68.7l-8.8,8.8c11.8,8.4,19.6,22.3,19.6,37.6h12.2C177.3,96.2,168.3,79.4,154.3,68.7z"/>
	<path fill="#FDB62A" d="M119,56.7c-13.3,0-25.5,4.5-35.3,12l8.8,8.8c7.5-5.4,16.7-8.6,26.6-8.6c9.9,0,19.1,3.2,26.6,8.6l8.8-8.8
		C144.5,61.2,132.3,56.7,119,56.7z"/>
	<path fill="#FDB62A" d="M129.1,38.7c-0.3-0.9-0.6-1.7-1.1-2.5c-0.5-0.8-1-1.5-1.6-2.1c-0.6-0.6-1.3-1.2-2.1-1.6
		c-0.8-0.5-1.6-0.8-2.5-1.1c-0.9-0.2-1.8-0.4-2.8-0.4s-1.9,0.1-2.8,0.4c-0.9,0.3-1.7,0.6-2.5,1.1c-0.8,0.5-1.5,1-2.1,1.6
		c-0.6,0.6-1.2,1.3-1.6,2.1c-0.5,0.8-0.8,1.6-1.1,2.5c-0.3,0.9-0.4,1.8-0.4,2.8c0,1,0.1,1.9,0.4,2.8c0.3,0.9,0.6,1.7,1.1,2.5
		c0.5,0.8,1,1.5,1.6,2.1c0.6,0.6,1.3,1.2,2.1,1.7c0.8,0.5,1.6,0.8,2.5,1c0.9,0.2,1.8,0.4,2.8,0.4s1.9-0.1,2.8-0.4
		c0.9-0.2,1.7-0.6,2.5-1c0.8-0.5,1.5-1,2.1-1.7c0.6-0.6,1.2-1.4,1.6-2.1c0.5-0.8,0.8-1.6,1.1-2.5c0.3-0.9,0.4-1.8,0.4-2.8
		C129.5,40.5,129.4,39.6,129.1,38.7z M120.8,37.8c0.1-0.2,0.2-0.3,0.3-0.5c0.1-0.1,0.3-0.2,0.5-0.3c0.2-0.1,0.4-0.1,0.6-0.1
		c0.2,0,0.4,0,0.6,0.1c0.2,0.1,0.3,0.2,0.5,0.3c0.1,0.1,0.3,0.3,0.3,0.5c0.1,0.2,0.1,0.4,0.1,0.6c0,0.2,0,0.4-0.1,0.6
		c-0.1,0.2-0.2,0.3-0.3,0.5c-0.1,0.1-0.3,0.3-0.5,0.3c-0.2,0.1-0.4,0.1-0.6,0.1c-0.2,0-0.4,0-0.6-0.1s-0.3-0.2-0.5-0.3
		c-0.1-0.1-0.2-0.3-0.3-0.5c-0.1-0.2-0.1-0.4-0.1-0.6C120.7,38.2,120.7,38,120.8,37.8z M114.4,37.8c0.1-0.2,0.2-0.3,0.3-0.5
		c0.1-0.1,0.3-0.2,0.5-0.3c0.2-0.1,0.4-0.1,0.6-0.1c0.2,0,0.4,0,0.6,0.1c0.2,0.1,0.3,0.2,0.5,0.3c0.1,0.1,0.2,0.3,0.3,0.5
		c0.1,0.2,0.1,0.4,0.1,0.6c0,0.2,0,0.4-0.1,0.6c-0.1,0.2-0.2,0.3-0.3,0.5c-0.1,0.1-0.3,0.3-0.5,0.3c-0.2,0.1-0.4,0.1-0.6,0.1
		c-0.2,0-0.4,0-0.6-0.1c-0.2-0.1-0.3-0.2-0.5-0.3c-0.1-0.1-0.2-0.3-0.3-0.5c-0.1-0.2-0.1-0.4-0.1-0.6
		C114.3,38.2,114.3,38,114.4,37.8z M124,45h-10v-1h10V45z"/>
	<g>
		<path fill="#89C33F" d="M63.1,78.1c-0.3-0.9-0.6-1.7-1.1-2.5c-0.5-0.8-1-1.5-1.6-2.1c-0.6-0.6-1.3-1.2-2.1-1.6
			c-0.8-0.5-1.6-0.8-2.5-1.1c-0.9-0.2-1.8-0.4-2.8-0.4c-1,0-1.9,0.1-2.8,0.4c-0.9,0.3-1.7,0.6-2.5,1.1c-0.8,0.5-1.5,1-2.1,1.6
			c-0.6,0.6-1.2,1.3-1.6,2.1c-0.5,0.8-0.8,1.6-1.1,2.5c-0.3,0.9-0.4,1.8-0.4,2.8c0,1,0.1,1.9,0.4,2.8c0.3,0.9,0.6,1.7,1.1,2.5
			c0.5,0.8,1,1.5,1.6,2.1c0.6,0.6,1.3,1.2,2.1,1.7c0.8,0.5,1.6,0.8,2.5,1c0.9,0.2,1.8,0.4,2.8,0.4c1,0,1.9-0.1,2.8-0.4
			c0.9-0.2,1.7-0.6,2.5-1c0.8-0.5,1.5-1,2.1-1.7c0.6-0.6,1.2-1.4,1.6-2.1c0.5-0.8,0.8-1.6,1.1-2.5c0.3-0.9,0.4-1.8,0.4-2.8
			C63.5,79.9,63.3,79,63.1,78.1z M54.9,76.8c0.1-0.2,0.2-0.4,0.4-0.5c0.1-0.1,0.3-0.3,0.5-0.3c0.2-0.1,0.4-0.1,0.6-0.1
			c0.2,0,0.4,0,0.6,0.1c0.2,0.1,0.4,0.2,0.5,0.3c0.2,0.1,0.3,0.3,0.4,0.5c0.1,0.2,0.1,0.4,0.1,0.6c0,0.2,0,0.4-0.1,0.6
			c-0.1,0.2-0.2,0.4-0.4,0.5c-0.2,0.2-0.3,0.3-0.5,0.4c-0.2,0.1-0.4,0.1-0.6,0.1c-0.2,0-0.4,0-0.6-0.1c-0.2-0.1-0.4-0.2-0.5-0.4
			c-0.1-0.2-0.3-0.3-0.4-0.5c-0.1-0.2-0.1-0.4-0.1-0.6C54.8,77.2,54.8,77,54.9,76.8z M48,76.8c0.1-0.2,0.2-0.4,0.4-0.5
			c0.1-0.1,0.3-0.3,0.5-0.3c0.2-0.1,0.4-0.1,0.6-0.1c0.2,0,0.4,0,0.6,0.1c0.2,0.1,0.4,0.2,0.5,0.3c0.1,0.1,0.3,0.3,0.4,0.5
			c0.1,0.2,0.1,0.4,0.1,0.6c0,0.2,0,0.4-0.1,0.6c-0.1,0.2-0.2,0.4-0.4,0.5c-0.1,0.2-0.3,0.3-0.5,0.4c-0.2,0.1-0.4,0.1-0.6,0.1
			c-0.2,0-0.4,0-0.6-0.1c-0.2-0.1-0.4-0.2-0.5-0.4c-0.1-0.2-0.3-0.3-0.4-0.5c-0.1-0.2-0.1-0.4-0.1-0.6C47.8,77.2,47.9,77,48,76.8z
			 M57.3,85.1c-0.2,0.2-0.5,0.4-0.8,0.6c-0.3,0.2-0.6,0.4-1,0.5c-0.4,0.1-0.8,0.3-1.2,0.3c-0.4,0.1-0.9,0.1-1.3,0.1s-0.9,0-1.4-0.1
			c-0.4-0.1-0.8-0.2-1.2-0.3c-0.4-0.1-0.7-0.3-1-0.5c-0.3-0.2-0.6-0.4-0.8-0.6c-0.6-0.5-1.1-1-1.4-1.5l1.3-0.9
			c0.3,0.4,0.7,0.8,1.1,1.2c0.4,0.3,0.8,0.6,1.4,0.8c0.6,0.2,1.2,0.4,2,0.4c0.7,0,1.4-0.1,2-0.4c0.6-0.2,1-0.5,1.4-0.8
			c0.4-0.4,0.8-0.7,1.2-1.2l1.3,0.9C58.4,84.1,57.9,84.6,57.3,85.1z"/>
	</g>
	<g>
		<path fill="#EC4F24" d="M194.2,78.1c-0.3-0.9-0.6-1.7-1.1-2.5c-0.5-0.8-1-1.5-1.6-2.1c-0.6-0.6-1.3-1.2-2.1-1.6
			c-0.8-0.5-1.6-0.8-2.5-1.1c-0.9-0.2-1.8-0.4-2.8-0.4s-1.9,0.1-2.8,0.4c-0.9,0.3-1.7,0.6-2.5,1.1c-0.8,0.5-1.5,1-2.1,1.6
			c-0.6,0.6-1.2,1.3-1.6,2.1c-0.5,0.8-0.8,1.6-1.1,2.5c-0.3,0.9-0.4,1.8-0.4,2.8c0,1,0.1,1.9,0.4,2.8c0.3,0.9,0.6,1.7,1.1,2.5
			c0.5,0.8,1,1.5,1.6,2.1c0.6,0.6,1.3,1.2,2.1,1.7c0.8,0.5,1.6,0.8,2.5,1c0.9,0.2,1.8,0.4,2.8,0.4s1.9-0.1,2.8-0.4
			c0.9-0.2,1.7-0.6,2.5-1c0.8-0.5,1.5-1,2.1-1.7c0.6-0.6,1.2-1.4,1.6-2.1c0.5-0.8,0.8-1.6,1.1-2.5c0.3-0.9,0.4-1.8,0.4-2.8
			C194.5,79.9,194.4,79,194.2,78.1z M185.8,77.2c0.1-0.2,0.2-0.3,0.3-0.5c0.1-0.1,0.3-0.2,0.5-0.3c0.2-0.1,0.4-0.1,0.6-0.1
			c0.2,0,0.4,0,0.6,0.1c0.2,0.1,0.3,0.2,0.5,0.3c0.1,0.1,0.3,0.3,0.3,0.5c0.1,0.2,0.1,0.4,0.1,0.6c0,0.2,0,0.4-0.1,0.6
			c-0.1,0.2-0.2,0.3-0.3,0.5c-0.1,0.1-0.3,0.3-0.5,0.3c-0.2,0.1-0.4,0.1-0.6,0.1c-0.2,0-0.4,0-0.6-0.1c-0.2-0.1-0.3-0.2-0.5-0.3
			c-0.1-0.1-0.2-0.3-0.3-0.5c-0.1-0.2-0.1-0.4-0.1-0.6C185.7,77.6,185.7,77.4,185.8,77.2z M179.4,77.2c0.1-0.2,0.2-0.3,0.3-0.5
			c0.1-0.1,0.3-0.2,0.5-0.3c0.2-0.1,0.4-0.1,0.6-0.1c0.2,0,0.4,0,0.6,0.1c0.2,0.1,0.3,0.2,0.5,0.3c0.1,0.1,0.2,0.3,0.3,0.5
			c0.1,0.2,0.1,0.4,0.1,0.6c0,0.2,0,0.4-0.1,0.6c-0.1,0.2-0.2,0.3-0.3,0.5c-0.1,0.1-0.3,0.3-0.5,0.3c-0.2,0.1-0.4,0.1-0.6,0.1
			c-0.2,0-0.4,0-0.6-0.1c-0.2-0.1-0.3-0.2-0.5-0.3c-0.1-0.1-0.2-0.3-0.3-0.5c-0.1-0.2-0.1-0.4-0.1-0.6
			C179.3,77.6,179.4,77.4,179.4,77.2z M188.2,86.2c-0.3-0.4-0.6-0.8-1-1.1c-0.3-0.3-0.8-0.5-1.3-0.8c-0.5-0.2-1.1-0.3-1.8-0.3
			c-0.7,0-1.3,0.1-1.8,0.3c-0.5,0.2-1,0.5-1.3,0.8c-0.4,0.3-0.8,0.7-1.1,1.1l-1.2-0.9c0.4-0.5,0.8-1,1.3-1.4
			c0.2-0.2,0.5-0.3,0.7-0.5c0.3-0.2,0.6-0.3,0.9-0.5s0.7-0.2,1.1-0.3c0.4-0.1,0.8-0.1,1.2-0.1c0.4,0,0.9,0,1.3,0.1
			c0.4,0.1,0.8,0.2,1.1,0.3c0.3,0.1,0.6,0.3,0.9,0.5c0.3,0.2,0.5,0.3,0.7,0.5c0.5,0.4,1,0.9,1.3,1.4L188.2,86.2z"/>
		<path opacity="0.3" fill="#EC4F24" enable-background="new    " d="M194.2,78.1c-0.3-0.9-0.6-1.7-1.1-2.5c-0.5-0.8-1-1.5-1.6-2.1
			c-0.6-0.6-1.3-1.2-2.1-1.6c-0.8-0.5-1.6-0.8-2.5-1.1c-0.9-0.2-1.8-0.4-2.8-0.4s-1.9,0.1-2.8,0.4c-0.9,0.3-1.7,0.6-2.5,1.1
			c-0.8,0.5-1.5,1-2.1,1.6c-0.6,0.6-1.2,1.3-1.6,2.1c-0.5,0.8-0.8,1.6-1.1,2.5c-0.3,0.9-0.4,1.8-0.4,2.8c0,1,0.1,1.9,0.4,2.8
			c0.3,0.9,0.6,1.7,1.1,2.5c0.5,0.8,1,1.5,1.6,2.1c0.6,0.6,1.3,1.2,2.1,1.7c0.8,0.5,1.6,0.8,2.5,1c0.9,0.2,1.8,0.4,2.8,0.4
			s1.9-0.1,2.8-0.4c0.9-0.2,1.7-0.6,2.5-1c0.8-0.5,1.5-1,2.1-1.7c0.6-0.6,1.2-1.4,1.6-2.1c0.5-0.8,0.8-1.6,1.1-2.5
			c0.3-0.9,0.4-1.8,0.4-2.8C194.5,79.9,194.4,79,194.2,78.1z M185.8,77.2c0.1-0.2,0.2-0.3,0.3-0.5c0.1-0.1,0.3-0.2,0.5-0.3
			c0.2-0.1,0.4-0.1,0.6-0.1c0.2,0,0.4,0,0.6,0.1c0.2,0.1,0.3,0.2,0.5,0.3c0.1,0.1,0.3,0.3,0.3,0.5c0.1,0.2,0.1,0.4,0.1,0.6
			c0,0.2,0,0.4-0.1,0.6c-0.1,0.2-0.2,0.3-0.3,0.5c-0.1,0.1-0.3,0.3-0.5,0.3c-0.2,0.1-0.4,0.1-0.6,0.1c-0.2,0-0.4,0-0.6-0.1
			c-0.2-0.1-0.3-0.2-0.5-0.3c-0.1-0.1-0.2-0.3-0.3-0.5c-0.1-0.2-0.1-0.4-0.1-0.6C185.7,77.6,185.7,77.4,185.8,77.2z M179.4,77.2
			c0.1-0.2,0.2-0.3,0.3-0.5c0.1-0.1,0.3-0.2,0.5-0.3c0.2-0.1,0.4-0.1,0.6-0.1c0.2,0,0.4,0,0.6,0.1c0.2,0.1,0.3,0.2,0.5,0.3
			c0.1,0.1,0.2,0.3,0.3,0.5c0.1,0.2,0.1,0.4,0.1,0.6c0,0.2,0,0.4-0.1,0.6c-0.1,0.2-0.2,0.3-0.3,0.5c-0.1,0.1-0.3,0.3-0.5,0.3
			c-0.2,0.1-0.4,0.1-0.6,0.1c-0.2,0-0.4,0-0.6-0.1c-0.2-0.1-0.3-0.2-0.5-0.3c-0.1-0.1-0.2-0.3-0.3-0.5c-0.1-0.2-0.1-0.4-0.1-0.6
			C179.3,77.6,179.4,77.4,179.4,77.2z M188.2,86.2c-0.3-0.4-0.6-0.8-1-1.1c-0.3-0.3-0.8-0.5-1.3-0.8c-0.5-0.2-1.1-0.3-1.8-0.3
			c-0.7,0-1.3,0.1-1.8,0.3c-0.5,0.2-1,0.5-1.3,0.8c-0.4,0.3-0.8,0.7-1.1,1.1l-1.2-0.9c0.4-0.5,0.8-1,1.3-1.4
			c0.2-0.2,0.5-0.3,0.7-0.5c0.3-0.2,0.6-0.3,0.9-0.5s0.7-0.2,1.1-0.3c0.4-0.1,0.8-0.1,1.2-0.1c0.4,0,0.9,0,1.3,0.1
			c0.4,0.1,0.8,0.2,1.1,0.3c0.3,0.1,0.6,0.3,0.9,0.5c0.3,0.2,0.5,0.3,0.7,0.5c0.5,0.4,1,0.9,1.3,1.4L188.2,86.2z"/>
	</g>
	<path fill="#0070B8" d="M119,109.8c-2.9,0-5.3,2.4-5.3,5.3h10.5C124.3,112.1,121.9,109.8,119,109.8z"/>
	<polygon fill="#0070B8" points="119,109.8 115.8,99.5 119,71.7 122.2,99.5 	"/>
</g>
</svg>
